<svg width="36" height="36" viewBox="0 0 36 36" fill="none" xmlns="http://www.w3.org/2000/svg">
<path d="M6.06119 4.29062C5.5723 3.80173 4.77965 3.80173 4.29077 4.29062C3.80188 4.77952 3.80188 5.57217 4.29077 6.06106L29.9388 31.7095C30.4276 32.1983 31.2203 32.1983 31.7092 31.7095C32.1981 31.2206 32.1981 30.4279 31.7092 29.939L24.6762 22.9059V21.7287C24.6762 21.148 24.2054 20.6772 23.6247 20.6772H22.4475L18.4646 16.6942V15.7816C18.4646 15.2009 17.9938 14.7301 17.4131 14.7301H16.5005L13.5992 11.8287C15.4297 11.12 17.8752 10.6661 20.4058 11.1264C23.5865 11.705 27.0638 13.7551 29.7075 18.9671C30.0203 19.5837 30.7737 19.83 31.3903 19.5173C32.0069 19.2045 32.2532 18.4511 31.9404 17.8345C28.9737 11.9857 24.8702 9.39364 20.8539 8.66306C17.3076 8.01796 13.9573 8.84611 11.6951 9.92466L6.06119 4.29062Z" fill="#0A1014"/>
<path d="M9.20634 13.0503C8.68602 12.595 7.89513 12.6478 7.43984 13.1681C5.99023 14.8248 4.919 16.3158 4.05627 18.0413C3.74707 18.6597 3.99772 19.4117 4.61612 19.7209C5.23452 20.0301 5.98649 19.7794 6.29569 19.161C7.03595 17.6805 7.96847 16.3662 9.32411 14.8168C9.77939 14.2965 9.72667 13.5056 9.20634 13.0503Z" fill="#0A1014"/>
<path d="M14.2119 18.151C13.5 17.4391 13.121 17.4314 12.5279 17.4944C11.9159 17.5595 11.3848 17.9625 11.1487 18.7279C10.648 20.3514 10.4081 23.3854 13.0142 25.9916C15.6202 28.5977 18.6542 28.3578 20.2777 27.8571C21.0432 27.6211 21.4461 27.0899 21.5112 26.4778C21.5742 25.8848 21.5608 25.5 20.8546 24.7938L14.2119 18.151Z" fill="#0A1014"/>
</svg>
