<svg width="36" height="36" viewBox="0 0 36 36" fill="none" xmlns="http://www.w3.org/2000/svg">
<g clip-path="url(#clip0_354_234)">
<path fill-rule="evenodd" clip-rule="evenodd" d="M9 7.24994C8.53587 7.24994 8.09075 7.43431 7.76256 7.7625C7.43437 8.09069 7.25 8.53581 7.25 8.99994V10.4999C7.25 11.1903 6.69036 11.7499 6 11.7499C5.30964 11.7499 4.75 11.1903 4.75 10.4999V8.99994C4.75 7.87277 5.19777 6.79176 5.9948 5.99474C6.79183 5.19771 7.87283 4.74994 9 4.74994H12C12.6904 4.74994 13.25 5.30958 13.25 5.99994C13.25 6.69029 12.6904 7.24994 12 7.24994H9Z" fill="#0A1014"/>
<path fill-rule="evenodd" clip-rule="evenodd" d="M6 24.2501C6.69036 24.2501 7.25 24.8097 7.25 25.5001V27.0001C7.25 27.4642 7.43437 27.9093 7.76256 28.2375C8.09075 28.5657 8.53587 28.7501 9 28.7501H12C12.6904 28.7501 13.25 29.3097 13.25 30.0001C13.25 30.6904 12.6904 31.2501 12 31.2501H9C7.87283 31.2501 6.79183 30.8023 5.9948 30.0053C5.19777 29.2082 4.75 28.1272 4.75 27.0001V25.5001C4.75 24.8097 5.30964 24.2501 6 24.2501Z" fill="#0A1014"/>
<path fill-rule="evenodd" clip-rule="evenodd" d="M22.7502 5.99994C22.7502 5.30958 23.3099 4.74994 24.0002 4.74994H27.0002C28.1274 4.74994 29.2084 5.19771 30.0054 5.99474C30.8025 6.79176 31.2502 7.87277 31.2502 8.99994V10.4999C31.2502 11.1903 30.6906 11.7499 30.0002 11.7499C29.3099 11.7499 28.7502 11.1903 28.7502 10.4999V8.99994C28.7502 8.53581 28.5659 8.09069 28.2377 7.7625C27.9095 7.43431 27.4644 7.24994 27.0002 7.24994H24.0002C23.3099 7.24994 22.7502 6.69029 22.7502 5.99994Z" fill="#0A1014"/>
<path fill-rule="evenodd" clip-rule="evenodd" d="M30.0002 24.2501C30.6906 24.2501 31.2502 24.8097 31.2502 25.5001V27.0001C31.2502 28.1272 30.8025 29.2082 30.0054 30.0053C29.2084 30.8023 28.1274 31.2501 27.0002 31.2501H24.0002C23.3099 31.2501 22.7502 30.6904 22.7502 30.0001C22.7502 29.3097 23.3099 28.7501 24.0002 28.7501H27.0002C27.4644 28.7501 27.9095 28.5657 28.2377 28.2375C28.5659 27.9093 28.7502 27.4642 28.7502 27.0001V25.5001C28.7502 24.8097 29.3099 24.2501 30.0002 24.2501Z" fill="#0A1014"/>
<path fill-rule="evenodd" clip-rule="evenodd" d="M12 12V15H15V12H12ZM10.537 10.537C10.8808 10.1932 11.3471 10 11.8333 10H15.1667C15.6529 10 16.1192 10.1932 16.463 10.537C16.8068 10.8808 17 11.3471 17 11.8333V15.1667C17 15.6529 16.8068 16.1192 16.463 16.463C16.1192 16.8068 15.6529 17 15.1667 17H11.8333C11.3471 17 10.8808 16.8068 10.537 16.463C10.1932 16.1192 10 15.6529 10 15.1667V11.8333C10 11.3471 10.1932 10.8808 10.537 10.537Z" fill="#0A1014"/>
<path fill-rule="evenodd" clip-rule="evenodd" d="M21 12V15H24V12H21ZM19.537 10.537C19.8808 10.1932 20.3471 10 20.8333 10H24.1667C24.6529 10 25.1192 10.1932 25.463 10.537C25.8068 10.8808 26 11.3471 26 11.8333V15.1667C26 15.6529 25.8068 16.1192 25.463 16.463C25.1192 16.8068 24.6529 17 24.1667 17H20.8333C20.3471 17 19.8808 16.8068 19.537 16.463C19.1932 16.1192 19 15.6529 19 15.1667V11.8333C19 11.3471 19.1932 10.8808 19.537 10.537Z" fill="#0A1014"/>
<path fill-rule="evenodd" clip-rule="evenodd" d="M12 21V24H15V21H12ZM10.537 19.537C10.8808 19.1932 11.3471 19 11.8333 19H15.1667C15.6529 19 16.1192 19.1932 16.463 19.537C16.8068 19.8808 17 20.3471 17 20.8333V24.1667C17 24.6529 16.8068 25.1192 16.463 25.463C16.1192 25.8068 15.6529 26 15.1667 26H11.8333C11.3471 26 10.8808 25.8068 10.537 25.463C10.1932 25.1192 10 24.6529 10 24.1667V20.8333C10 20.3471 10.1932 19.8808 10.537 19.537Z" fill="#0A1014"/>
<path fill-rule="evenodd" clip-rule="evenodd" d="M21 21V24H24V21H21ZM19.537 19.537C19.8808 19.1932 20.3471 19 20.8333 19H24.1667C24.6529 19 25.1192 19.1932 25.463 19.537C25.8068 19.8808 26 20.3471 26 20.8333V24.1667C26 24.6529 25.8068 25.1192 25.463 25.463C25.1192 25.8068 24.6529 26 24.1667 26H20.8333C20.3471 26 19.8808 25.8068 19.537 25.463C19.1932 25.1192 19 24.6529 19 24.1667V20.8333C19 20.3471 19.1932 19.8808 19.537 19.537Z" fill="#0A1014"/>
</g>
<defs>
<clipPath id="clip0_354_234">
<rect width="36" height="36" fill="white"/>
</clipPath>
</defs>
</svg>
