<svg width="36" height="36" viewBox="0 0 36 36" fill="none" xmlns="http://www.w3.org/2000/svg">
<path fill-rule="evenodd" clip-rule="evenodd" d="M26.3264 0.673504C25.87 0.217047 25.1299 0.217047 24.6734 0.673504C24.217 1.12996 24.217 1.87002 24.6734 2.32648L28.6781 6.33117H10.4999C8.59859 6.33117 6.77517 7.08645 5.43076 8.43087C4.08634 9.77528 3.33105 11.5987 3.33105 13.5V16.5C3.33105 17.1455 3.85436 17.6688 4.49989 17.6688C5.14541 17.6688 5.66872 17.1455 5.66872 16.5V13.5C5.66872 12.2187 6.17771 10.9899 7.08373 10.0838C7.98975 9.17782 9.21858 8.66883 10.4999 8.66883H28.6781L24.6734 12.6735C24.217 13.13 24.217 13.87 24.6734 14.3265C25.1299 14.7829 25.87 14.7829 26.3264 14.3265L32.3264 8.32648C32.4501 8.20281 32.5403 8.05832 32.5969 7.90429C32.633 7.80641 32.6563 7.70238 32.665 7.5942C32.6701 7.53093 32.67 7.46732 32.6648 7.40406C32.6562 7.29772 32.6333 7.19541 32.5981 7.09904C32.5416 6.94376 32.451 6.79807 32.3264 6.6735L26.3264 0.673504Z" fill="#0A1014"/>
<path d="M32.6687 19.5C32.6687 18.8545 32.1454 18.3312 31.4999 18.3312C30.8544 18.3312 30.3311 18.8545 30.3311 19.5V22.5C30.3311 23.7813 29.8221 25.0101 28.916 25.9161C28.01 26.8222 26.7812 27.3312 25.4999 27.3312H7.3217L11.3264 23.3265C11.7828 22.87 11.7828 22.13 11.3264 21.6735C10.8699 21.217 10.1299 21.217 9.6734 21.6735L3.67492 27.672C3.67012 27.6768 3.66535 27.6816 3.66063 27.6865C3.55522 27.7951 3.4751 27.9192 3.42026 28.0513C3.36279 28.1895 3.33105 28.341 3.33105 28.5C3.33105 28.658 3.3624 28.8086 3.41921 28.9461C3.47625 29.0845 3.56098 29.2141 3.6734 29.3265L9.6734 35.3265C10.1299 35.7829 10.8699 35.7829 11.3264 35.3265C11.7828 34.87 11.7828 34.13 11.3264 33.6735L7.32169 29.6688H25.4999C27.4012 29.6688 29.2246 28.9135 30.569 27.5691C31.9134 26.2247 32.6687 24.4013 32.6687 22.5V19.5Z" fill="#0A1014"/>
<path d="M19.2156 12.6703C19.2156 12.1279 18.776 11.6883 18.2337 11.6883C17.6914 11.6883 17.2517 12.1279 17.2517 12.6703V16.7843H13.1377C12.5954 16.7843 12.1558 17.2239 12.1558 17.7662C12.1558 18.3086 12.5954 18.7482 13.1377 18.7482H17.2517V22.8622C17.2517 23.4045 17.6914 23.8442 18.2337 23.8442C18.776 23.8442 19.2156 23.4045 19.2156 22.8622V18.7482H23.3297C23.872 18.7482 24.3116 18.3086 24.3116 17.7662C24.3116 17.2239 23.872 16.7843 23.3297 16.7843H19.2156V12.6703Z" fill="#0A1014"/>
</svg>
