<svg width="36" height="36" viewBox="0 0 36 36" fill="none" xmlns="http://www.w3.org/2000/svg">
<g clip-path="url(#clip0_354_214)">
<path fill-rule="evenodd" clip-rule="evenodd" d="M9 7.5C8.20435 7.5 7.44129 7.81607 6.87868 8.37868C6.31607 8.94129 6 9.70435 6 10.5V22.5C6 23.2956 6.31607 24.0587 6.87868 24.6213C7.44129 25.1839 8.20435 25.5 9 25.5H14.0581C14.5128 25.5 14.943 25.7063 15.2277 26.0608L17.772 29.2292L20.4015 26.0449C20.6865 25.6998 21.1106 25.5 21.5581 25.5H27C27.7957 25.5 28.5587 25.1839 29.1213 24.6213C29.6839 24.0587 30 23.2956 30 22.5V10.5C30 9.70435 29.6839 8.94129 29.1213 8.37868C28.5587 7.81607 27.7956 7.5 27 7.5H9ZM4.75736 6.25736C5.88258 5.13214 7.4087 4.5 9 4.5H27C28.5913 4.5 30.1174 5.13214 31.2426 6.25736C32.3679 7.38258 33 8.9087 33 10.5V22.5C33 24.0913 32.3679 25.6174 31.2426 26.7426C30.1174 27.8679 28.5913 28.5 27 28.5H22.2648L18.9124 32.5598C18.6252 32.9076 18.1967 33.1077 17.7456 33.1047C17.2945 33.1016 16.8687 32.8956 16.5862 32.5439L13.3389 28.5H9C7.4087 28.5 5.88258 27.8679 4.75736 26.7426C3.63214 25.6174 3 24.0913 3 22.5V10.5C3 8.9087 3.63214 7.38258 4.75736 6.25736Z" fill="#FE0909"/>
<path fill-rule="evenodd" clip-rule="evenodd" d="M18 10.5C18.8284 10.5 19.5 11.1716 19.5 12V16.5C19.5 17.3284 18.8284 18 18 18C17.1716 18 16.5 17.3284 16.5 16.5V12C16.5 11.1716 17.1716 10.5 18 10.5Z" fill="#FE0909"/>
<path fill-rule="evenodd" clip-rule="evenodd" d="M18 19.5C18.8284 19.5 19.5 20.1716 19.5 21V21.0151C19.5 21.8436 18.8284 22.5151 18 22.5151C17.1716 22.5151 16.5 21.8436 16.5 21.0151V21C16.5 20.1716 17.1716 19.5 18 19.5Z" fill="#FE0909"/>
</g>
<defs>
<clipPath id="clip0_354_214">
<rect width="36" height="36" fill="white"/>
</clipPath>
</defs>
</svg>
