<svg width="36" height="36" viewBox="0 0 36 36" fill="none" xmlns="http://www.w3.org/2000/svg">
<path d="M5.625 12.375H10.2656C10.5135 13.343 11.0764 14.201 11.8657 14.8136C12.655 15.4263 13.6258 15.7589 14.625 15.7589C15.6242 15.7589 16.595 15.4263 17.3843 14.8136C18.1736 14.201 18.7365 13.343 18.9844 12.375H30.375C30.6734 12.375 30.9595 12.2565 31.1705 12.0455C31.3815 11.8346 31.5 11.5484 31.5 11.25C31.5 10.9517 31.3815 10.6655 31.1705 10.4545C30.9595 10.2436 30.6734 10.125 30.375 10.125H18.9844C18.7365 9.15707 18.1736 8.29912 17.3843 7.68644C16.595 7.07376 15.6242 6.74121 14.625 6.74121C13.6258 6.74121 12.655 7.07376 11.8657 7.68644C11.0764 8.29912 10.5135 9.15707 10.2656 10.125H5.625C5.32663 10.125 5.04048 10.2436 4.82951 10.4545C4.61853 10.6655 4.5 10.9517 4.5 11.25C4.5 11.5484 4.61853 11.8346 4.82951 12.0455C5.04048 12.2565 5.32663 12.375 5.625 12.375ZM14.625 9.00003C15.07 9.00003 15.505 9.132 15.875 9.37923C16.245 9.62646 16.5334 9.97786 16.7037 10.389C16.874 10.8001 16.9186 11.2525 16.8318 11.689C16.745 12.1254 16.5307 12.5264 16.216 12.841C15.9013 13.1557 15.5004 13.37 15.064 13.4568C14.6275 13.5436 14.1751 13.4991 13.764 13.3288C13.3528 13.1585 13.0014 12.8701 12.7542 12.5001C12.507 12.1301 12.375 11.695 12.375 11.25C12.375 10.6533 12.6121 10.081 13.034 9.65905C13.456 9.23709 14.0283 9.00003 14.625 9.00003ZM30.375 23.625H27.9844C27.7365 22.6571 27.1736 21.7991 26.3843 21.1864C25.595 20.5738 24.6242 20.2412 23.625 20.2412C22.6258 20.2412 21.655 20.5738 20.8657 21.1864C20.0764 21.7991 19.5135 22.6571 19.2656 23.625H5.625C5.32663 23.625 5.04048 23.7436 4.82951 23.9545C4.61853 24.1655 4.5 24.4517 4.5 24.75C4.5 25.0484 4.61853 25.3346 4.82951 25.5455C5.04048 25.7565 5.32663 25.875 5.625 25.875H19.2656C19.5135 26.843 20.0764 27.701 20.8657 28.3136C21.655 28.9263 22.6258 29.2589 23.625 29.2589C24.6242 29.2589 25.595 28.9263 26.3843 28.3136C27.1736 27.701 27.7365 26.843 27.9844 25.875H30.375C30.6734 25.875 30.9595 25.7565 31.1705 25.5455C31.3815 25.3346 31.5 25.0484 31.5 24.75C31.5 24.4517 31.3815 24.1655 31.1705 23.9545C30.9595 23.7436 30.6734 23.625 30.375 23.625ZM23.625 27C23.18 27 22.745 26.8681 22.375 26.6208C22.005 26.3736 21.7166 26.0222 21.5463 25.6111C21.376 25.1999 21.3314 24.7475 21.4182 24.3111C21.505 23.8746 21.7193 23.4737 22.034 23.159C22.3487 22.8444 22.7496 22.6301 23.186 22.5433C23.6225 22.4565 24.0749 22.501 24.486 22.6713C24.8972 22.8416 25.2486 23.13 25.4958 23.5C25.743 23.87 25.875 24.305 25.875 24.75C25.875 25.3468 25.6379 25.9191 25.216 26.341C24.794 26.763 24.2217 27 23.625 27Z" fill="#0A1014"/>
</svg>
