<svg width="36" height="36" viewBox="0 0 36 36" fill="none" xmlns="http://www.w3.org/2000/svg">
<path fill-rule="evenodd" clip-rule="evenodd" d="M10.5427 17.7731C10.302 17.773 10.0669 17.6859 9.89024 17.5248C9.71268 17.3628 9.60833 17.1383 9.60833 16.8992C9.60833 16.6601 9.71268 16.4355 9.89024 16.2736C10.067 16.1123 10.3022 16.0252 10.5431 16.0252H10.5437C11.6137 16.027 12.5243 15.7654 13.4036 15.2535C12.9464 14.7644 12.5927 14.1369 12.3181 13.5462C12.0637 12.999 11.8613 12.4456 11.7092 12.0295C11.6564 11.8854 11.6097 11.7576 11.569 11.6524L11.5656 11.6439H10.3561C10.1153 11.6439 9.88009 11.5568 9.70329 11.3956C9.52573 11.2336 9.42139 11.0091 9.42139 10.77C9.42139 10.5308 9.52573 10.3063 9.70329 10.1444C9.88009 9.98309 10.1153 9.89603 10.3561 9.89603H13.9081V9.23525C13.9081 8.99614 14.0125 8.77161 14.19 8.60965C14.3668 8.44839 14.602 8.36133 14.8429 8.36133C15.0837 8.36133 15.3189 8.44839 15.4957 8.60965C15.6733 8.77161 15.7776 8.99614 15.7776 9.23525V9.89603H19.3296C19.5705 9.89603 19.8057 9.98309 19.9825 10.1444C20.16 10.3063 20.2644 10.5308 20.2644 10.77C20.2644 11.0091 20.16 11.2336 19.9825 11.3956C19.8057 11.5568 19.5705 11.6439 19.3296 11.6439H17.9613C17.7803 12.9666 17.1901 14.2118 16.2643 15.2344C17.0881 15.702 18.0313 15.9756 19.008 16.0257C19.5825 16.0552 20.0196 16.5188 19.9213 17.0357C19.8711 17.2993 19.6854 17.5152 19.41 17.6376C19.1448 17.7554 18.8042 17.786 18.4011 17.7305C17.1165 17.5857 15.8929 17.1463 14.8441 16.4532C13.5647 17.3134 12.1623 17.7747 10.5427 17.7731ZM13.5575 11.6439H16.0708C15.9042 12.5442 15.4814 13.3916 14.8418 14.1006C14.7534 13.9927 14.6619 13.8648 14.5687 13.7195C14.3888 13.4389 14.2145 13.1121 14.0531 12.7767C13.8624 12.3806 13.6936 11.9812 13.5575 11.6439Z" fill="#0A1014"/>
<path fill-rule="evenodd" clip-rule="evenodd" d="M8.20165 7.02949C7.64448 7.02949 7.11013 7.24331 6.71614 7.62391C6.32216 8.00452 6.10083 8.52073 6.10083 9.05898V17.9887C6.10083 18.527 6.32216 19.0432 6.71614 19.4238C7.11013 19.8044 7.64448 20.0182 8.20165 20.0182H9.46215C10.0423 20.0182 10.5126 20.4725 10.5126 21.033V23.4543L14.9197 20.2245C15.1023 20.0907 15.3253 20.0182 15.5545 20.0182H20.8066C21.3638 20.0182 21.8981 19.8044 22.2921 19.4238C22.6861 19.0432 22.9074 18.527 22.9074 17.9887V9.05898C22.9074 8.52073 22.6861 8.00452 22.2921 7.62391C21.8981 7.24331 21.3638 7.02949 20.8066 7.02949H8.20165ZM5.23064 6.18885C6.0186 5.42764 7.08731 5 8.20165 5H20.8066C21.921 5 22.9897 5.42764 23.7776 6.18885C24.5656 6.95006 25.0083 7.98247 25.0083 9.05898V17.9887C25.0083 19.0652 24.5656 20.0977 23.7776 20.8589C22.9897 21.6201 21.921 22.0477 20.8066 22.0477H15.9079L10.097 26.3063C9.7792 26.5392 9.35225 26.5781 8.99497 26.4067C8.63769 26.2353 8.41174 25.8832 8.41174 25.4979V22.0477H8.20165C7.08731 22.0477 6.0186 21.6201 5.23064 20.8589C4.44267 20.0977 4 19.0652 4 17.9887V9.05898C4 7.98247 4.44267 6.95005 5.23064 6.18885Z" fill="#0A1014"/>
<path fill-rule="evenodd" clip-rule="evenodd" d="M25.9605 10.7111C25.9605 10.1559 26.4214 9.70587 26.9899 9.70587C28.0819 9.70587 29.1293 10.1295 29.9015 10.8836C30.6737 11.6377 31.1075 12.6605 31.1075 13.7269V22.5732C31.1075 23.6396 30.6737 24.6624 29.9015 25.4165C29.1293 26.1706 28.0819 26.5942 26.9899 26.5942H21.2253V30.2132C21.2253 30.6281 20.9642 31.0004 20.5681 31.1504C20.172 31.3004 19.7222 31.1974 19.4357 30.891L15.1122 26.2668C14.7289 25.8568 14.7585 25.221 15.1783 24.8466C15.5982 24.4723 16.2493 24.5012 16.6326 24.9112L19.1665 27.6213V25.589C19.1665 25.0338 19.6274 24.5837 20.1959 24.5837H26.9899C27.5359 24.5837 28.0596 24.3719 28.4457 23.9949C28.8318 23.6178 29.0487 23.1064 29.0487 22.5732V13.7269C29.0487 13.1937 28.8318 12.6823 28.4457 12.3053C28.0596 11.9282 27.5359 11.7164 26.9899 11.7164C26.4214 11.7164 25.9605 11.2663 25.9605 10.7111Z" fill="#0A1014"/>
</svg>
